# xmcd
#
# Track frame offsets:
#	300
#	15931
#	32223
#	50004
#	67473
#	82935
#	101516
#	123641
#	141611
#	160307
#	176454
#	193714
#
# Disc length: 2845 seconds
#
# Revision: 1
# Processed by: cddbd v1.5.1PL2 Copyright (c) Steve Scherf et al.
# Submitted via: audiograbber 1.83.01
#
DISCID=ad0b190c
DTITLE=CDPOOL - Street August 2006 CD1
DYEAR=2006
DGENRE=R&B
TTITLE0=Fergie - London Bridge
TTITLE1=Field Mob Featuring Ciara - So What
TTITLE2=Busta Rhymes Featuring Rick James - In The Ghetto
TTITLE3=Jurassic 5 Featuring Dave Matthews - Work It Out
TTITLE4=Missy Elliot - We Run This
TTITLE5=Nathan Featuring Rick Ross - Cold As Ice (Salaam Remi Mix)
TTITLE6=Tha Dogg Pound Featuring Ice Cube and Snoop Dogg - It's All Hood
TTITLE7=Mila J Featuring Marques Houston - Good Lookin Out
TTITLE8=Eric Roberson - Butterfly Girl
TTITLE9=Jack Splash and Cee-Lo Green Are: The Heart Attack - Right Now
TTITLE10=Aloe Blacc  - One Inna
TTITLE11=Salem Al Fakir - Dream Girl
EXTD=
EXTT0=
EXTT1=
EXTT2=
EXTT3=
EXTT4=
EXTT5=
EXTT6=
EXTT7=
EXTT8=
EXTT9=
EXTT10=
EXTT11=
PLAYORDER=
